<?xml version="1.0" standalone="no"?>
<!DOCTYPE svg PUBLIC "-//W3C//DTD SVG 20010904//EN"
 "http://www.w3.org/TR/2001/REC-SVG-20010904/DTD/svg10.dtd">
<svg version="1.0" xmlns="http://www.w3.org/2000/svg"
 width="563.000000pt" height="563.000000pt" viewBox="0 0 563.000000 563.000000"
 preserveAspectRatio="xMidYMid meet">

<g transform="translate(0.000000,563.000000) scale(0.100000,-0.100000)"
fill="#000000" stroke="none">
<path d="M3207 5492 c-37 -20 -102 -64 -143 -97 -85 -66 -224 -210 -224 -230
0 -7 28 16 63 52 135 143 343 293 406 293 24 0 25 -8 41 -190 14 -154 38 -312
50 -324 17 -17 20 -1 9 63 -5 35 -19 146 -29 247 -11 102 -24 193 -30 204 -17
31 -66 25 -143 -18z"/>
<path d="M1793 5480 c-168 -18 -343 -66 -515 -143 -63 -28 -81 -53 -25 -35 80
25 77 27 77 -41 0 -48 4 -63 16 -68 29 -11 43 23 38 91 l-5 63 73 21 c40 12
93 26 118 32 53 13 262 38 272 33 3 -2 2 -18 -3 -36 -24 -85 -3 -203 30 -163
9 11 30 144 31 200 0 13 166 0 240 -19 76 -20 190 -64 190 -74 0 -4 -11 -35
-25 -69 -28 -70 -32 -107 -10 -116 18 -7 37 21 62 93 10 29 23 55 30 58 6 2
54 -18 106 -46 90 -49 127 -61 127 -42 0 5 -39 30 -87 56 -49 26 -102 58 -120
71 -17 13 -36 24 -41 24 -5 0 -44 16 -86 36 -148 68 -313 93 -493 74z"/>
<path d="M143 5449 c-13 -7 -25 -20 -28 -29 -6 -20 13 -119 61 -300 84 -320
150 -509 182 -518 10 -3 8 7 -6 34 -33 65 -214 724 -210 764 5 47 68 40 313
-36 77 -23 205 -59 285 -79 79 -20 169 -45 199 -56 65 -22 61 -22 61 -8 0 18
-83 48 -287 103 -109 29 -252 70 -317 90 -131 40 -219 52 -253 35z"/>
<path d="M3233 5368 c-32 -36 -123 -176 -139 -215 -17 -39 -10 -76 14 -71 8 2
29 30 46 63 17 33 47 83 66 110 l35 50 7 -55 c3 -30 6 -94 7 -142 1 -47 4 -93
7 -102 7 -19 44 -22 45 -3 5 54 -5 346 -12 364 -11 30 -49 30 -76 1z"/>
<path d="M348 5279 c-10 -6 -18 -19 -18 -30 0 -26 47 -118 132 -258 38 -63 85
-145 104 -182 33 -67 58 -86 70 -54 10 25 -22 90 -132 276 -57 97 -104 179
-104 183 0 13 71 -24 177 -92 236 -151 283 -171 283 -123 0 13 -18 30 -57 52
-32 18 -105 63 -163 100 -177 113 -257 148 -292 128z"/>
<path d="M1072 4634 c-24 -17 -30 -62 -10 -82 21 -21 66 -14 83 12 24 36 -2
86 -44 86 -3 0 -17 -7 -29 -16z"/>
<path d="M108 4563 c-23 -28 41 -67 219 -133 90 -33 177 -63 194 -67 l29 -5 0
-128 c0 -70 3 -142 6 -159 l7 -32 -96 7 c-117 8 -150 2 -145 -29 3 -21 9 -22
125 -28 68 -3 125 -7 127 -10 2 -2 18 -41 36 -87 l32 -83 -29 -21 c-57 -43
-145 -137 -141 -150 10 -30 41 -17 109 46 39 36 77 66 83 66 6 0 27 -26 45
-57 154 -263 387 -468 621 -548 227 -77 490 -93 694 -42 195 49 424 153 610
277 128 86 103 96 250 -100 121 -160 196 -279 287 -455 220 -422 313 -761 312
-1130 0 -160 -14 -237 -74 -420 -88 -267 -263 -561 -475 -798 -43 -49 -63 -62
-130 -88 -103 -40 -213 -98 -224 -119 -13 -25 3 -41 40 -38 27 3 36 -2 50 -27
9 -16 24 -29 32 -27 9 1 44 -11 79 -28 176 -83 438 -78 558 11 99 73 90 251
-15 295 -42 18 -91 17 -228 -1 -61 -8 -112 -12 -114 -10 -3 2 12 23 33 46 31
34 140 179 193 255 9 14 14 15 18 7 8 -18 30 -16 60 3 42 28 258 39 479 25
105 -7 264 -15 355 -18 158 -5 168 -4 220 18 54 23 241 154 336 236 58 49 150
156 206 239 49 72 78 166 133 433 25 121 50 233 56 248 13 36 46 70 136 144
106 88 180 202 221 344 59 205 73 325 79 672 l6 311 -27 27 c-20 20 -33 25
-49 20 -12 -4 -35 -9 -50 -12 -34 -7 -57 -48 -92 -170 -23 -78 -26 -110 -29
-283 -7 -368 -51 -512 -204 -655 -285 -267 -294 -281 -444 -730 -91 -271 -129
-358 -188 -429 -52 -63 -89 -90 -159 -118 -49 -19 -74 -22 -201 -21 -80 0
-206 9 -280 18 -144 19 -267 16 -333 -7 -46 -16 -99 -65 -95 -87 5 -26 38 -25
66 2 15 14 47 30 72 36 57 13 178 14 255 1 115 -19 363 -30 438 -20 153 22
267 108 347 260 22 44 81 200 131 346 49 147 105 301 124 342 47 101 113 190
192 259 135 118 175 158 213 216 78 115 117 303 126 605 7 216 36 358 70 345
8 -3 23 2 33 11 15 13 20 14 24 4 2 -8 1 -146 -3 -308 -6 -223 -13 -323 -29
-410 -22 -125 -62 -274 -88 -323 -37 -73 -100 -151 -167 -204 -139 -113 -150
-133 -206 -418 -44 -221 -69 -314 -102 -380 -33 -65 -163 -219 -236 -278 -112
-91 -233 -177 -286 -204 -50 -26 -51 -26 -241 -20 -104 3 -251 11 -325 17
-187 16 -428 3 -504 -26 -11 -4 6 37 53 127 101 194 169 378 202 549 18 94 15
352 -6 495 -39 266 -114 496 -258 790 -119 243 -274 486 -415 653 l-53 63 62
72 c34 40 67 73 73 75 7 1 61 -20 120 -48 96 -45 111 -49 124 -37 8 9 11 21 7
27 -4 7 -54 34 -111 61 -57 27 -104 51 -104 55 0 4 16 32 34 63 44 71 88 182
115 285 12 44 22 80 24 82 1 2 93 6 202 10 199 7 235 13 235 38 0 24 -26 26
-231 19 l-200 -6 5 24 c25 113 36 203 27 212 -18 18 -28 -3 -50 -108 -12 -55
-24 -108 -27 -119 -6 -17 -17 -18 -182 -15 -176 4 -192 1 -172 -31 7 -12 39
-16 162 -18 84 -1 158 -5 165 -7 14 -5 -16 -119 -54 -205 -36 -83 -104 -190
-119 -190 -22 0 -94 48 -141 93 -43 41 -73 45 -73 9 0 -24 69 -89 133 -126
l47 -28 -20 -28 c-130 -182 -636 -446 -940 -491 -109 -16 -327 -6 -440 20
-203 46 -321 110 -460 250 -91 91 -232 268 -265 331 -15 29 -15 30 15 45 32
16 41 51 16 61 -8 3 -28 -2 -45 -10 l-31 -16 -30 60 c-16 32 -30 62 -30 66 0
4 24 4 53 1 61 -6 81 2 75 29 -2 15 -16 21 -58 27 -99 15 -98 15 -110 55 -16
53 -26 262 -13 262 6 0 80 -19 164 -41 176 -48 212 -52 217 -26 5 23 -27 36
-218 86 -203 53 -487 150 -555 190 -49 28 -63 31 -77 14z m3209 -4168 c13 -9
27 -33 33 -55 14 -51 -9 -112 -54 -139 -99 -61 -282 -73 -421 -28 -128 42
-128 41 -47 119 75 72 91 79 240 102 123 20 222 20 249 1z m-572 -115 c-19
-21 -45 -27 -45 -10 0 10 52 41 59 34 2 -2 -4 -13 -14 -24z"/>
<path d="M2306 4554 c-32 -31 -10 -94 33 -94 45 0 71 59 41 95 -16 20 -54 19
-74 -1z"/>
<path d="M2910 4545 c-6 -8 -10 -19 -8 -25 3 -11 1097 -24 1124 -13 19 7 18
40 -2 47 -9 3 -260 6 -559 6 -464 0 -544 -2 -555 -15z"/>
<path d="M1631 4386 c-21 -22 -22 -30 -16 -103 6 -61 3 -93 -9 -137 -21 -70
-68 -126 -111 -129 -28 -2 -31 1 -50 60 -22 68 -37 89 -55 78 -17 -11 -8 -92
16 -141 53 -109 181 -63 244 89 l23 56 53 -48 c52 -47 123 -81 170 -81 37 0
75 40 77 80 3 47 -26 53 -48 11 -19 -38 -40 -39 -104 -6 -53 26 -91 66 -123
128 -16 32 -19 52 -14 91 5 46 -4 76 -23 76 -4 0 -18 -11 -30 -24z"/>
<path d="M767 3283 c-25 -28 -52 -100 -116 -306 -138 -440 -191 -760 -191
-1141 0 -276 33 -484 120 -749 105 -319 241 -540 412 -670 122 -92 198 -123
198 -81 0 7 -10 20 -22 27 -108 65 -167 109 -225 165 -155 154 -287 425 -368
754 -54 219 -60 277 -60 563 1 279 13 408 61 645 42 207 170 632 221 733 19
38 22 52 12 63 -15 18 -23 18 -42 -3z"/>
<path d="M2638 2343 c-17 -41 -23 -564 -8 -673 7 -47 14 -145 17 -218 4 -116
7 -134 24 -142 15 -8 22 -5 40 19 20 28 24 29 43 16 43 -31 92 -15 125 40 26
44 26 61 4 70 -13 4 -25 -2 -40 -22 -13 -15 -23 -31 -23 -35 0 -18 -40 -6 -58
17 -11 14 -27 25 -36 25 -12 0 -16 10 -16 40 0 22 -7 81 -16 132 -17 99 -23
334 -14 598 5 142 4 155 -12 158 -12 2 -22 -6 -30 -25z"/>
<path d="M2913 2338 c-4 -7 -9 -193 -11 -414 -3 -363 -1 -402 14 -415 14 -11
18 -11 30 6 12 16 14 89 12 424 -3 369 -5 406 -20 409 -9 2 -20 -3 -25 -10z"/>
<path d="M793 2258 c-20 -26 -22 -71 -24 -496 -1 -384 1 -435 15 -457 21 -32
53 -32 67 -1 11 23 12 23 39 8 42 -24 71 -6 114 74 34 60 36 69 22 82 -14 14
-18 14 -37 -4 -12 -10 -30 -36 -40 -56 -22 -44 -31 -46 -51 -16 -9 14 -25 22
-43 23 l-28 0 -1 424 c-1 420 -4 456 -33 419z"/>
<path d="M1061 2246 c-14 -17 -6 -765 9 -780 6 -6 15 -4 25 4 14 11 15 56 13
386 -3 325 -5 375 -19 389 -14 14 -17 14 -28 1z"/>
<path d="M451 372 c-26 -25 -31 -38 -31 -78 0 -45 4 -51 53 -99 71 -69 142
-96 272 -102 127 -7 192 9 342 81 l111 54 48 -14 c43 -13 50 -13 64 2 14 14
13 17 -9 35 -13 10 -21 25 -18 33 11 29 -19 40 -62 23 -37 -15 -44 -15 -147
14 -153 42 -315 68 -464 76 l-129 6 -30 -31z m320 -48 c121 -14 306 -57 323
-74 14 -14 -132 -79 -223 -97 -137 -29 -295 10 -367 89 -64 71 -30 112 86 102
36 -3 117 -12 181 -20z"/>
<path d="M2449 305 c-78 -74 -114 -80 -444 -79 -292 0 -381 8 -493 45 -65 22
-92 20 -92 -5 0 -21 46 -43 138 -67 166 -43 677 -49 813 -9 75 22 175 112 162
146 -9 25 -37 15 -84 -31z"/>
</g>
</svg>
